<svg width="180" height="35" viewBox="0 0 180 35" fill="none" xmlns="http://www.w3.org/2000/svg">
<path d="M13.686 20.2048C12.3208 21.5699 10.4778 22.2867 8.66893 22.2867C4.84641 22.2867 1.63822 19.7952 1.63822 15.256C1.63822 10.7167 4.84641 8.22525 8.66893 8.22525C10.4778 8.22525 12.3549 8.87371 13.7201 10.2389L14.8123 9.18088C13.1058 7.50853 10.8874 6.65528 8.66893 6.65528C3.78839 6.65528 0 9.93173 0 15.256C0 20.5802 3.92491 23.8566 8.66893 23.8566C10.8874 23.8566 13.1058 23.0375 14.8123 21.331L13.686 20.2048Z" fill="white"/>
<path d="M31.1143 23.9249C35.8583 23.9249 39.6808 20.6484 39.6808 15.2901C39.6808 9.93173 35.8583 6.51877 31.1143 6.51877C26.3702 6.51877 22.5477 9.93173 22.5477 15.2901C22.5477 20.6484 26.3702 23.9249 31.1143 23.9249ZM31.1143 22.2867C27.2917 22.2867 24.1859 19.6587 24.1859 15.2901C24.1859 10.9215 27.2917 8.08873 31.1143 8.08873C34.9368 8.08873 38.0426 10.9215 38.0426 15.2901C38.0426 19.6587 34.9368 22.2867 31.1143 22.2867Z" fill="white"/>
<path d="M60.2199 8.0546C58.923 7.1331 57.1483 6.51877 55.4418 6.51877C51.0732 6.51877 47.5237 9.48805 47.5237 14.744C47.5237 19.2491 50.5612 22.901 55.4418 22.901C58.5817 22.901 61.824 24.3345 61.824 27.9522C61.824 31.5358 58.8206 33.0375 55.4418 33.0375C52.0629 33.0375 49.1278 31.3993 49.1278 27.9522H47.4554C47.4554 32.2184 50.9708 34.6757 55.4418 34.6757C59.9128 34.6757 63.4622 32.4914 63.4622 27.9522C63.4622 25.0512 61.824 22.9693 58.8547 21.9112C61.6534 20.6484 63.394 17.6792 63.394 14.744C63.394 12.0136 62.5066 10.3072 61.3121 9.01023L62.9503 7.09897L61.8582 6.14334L60.2199 8.0546ZM55.4418 8.19112C58.923 8.19112 61.7558 10.4778 61.7558 14.744C61.7558 18.2252 58.923 21.2286 55.4418 21.2286C51.5851 21.2286 49.196 18.2252 49.196 14.744C49.196 10.3413 51.9947 8.19112 55.4418 8.19112Z" fill="white"/>
<path d="M71.6182 6.82593V23.686H73.2905V14.3003C73.2905 10.8191 75.7137 8.19112 79.195 8.15699C82.8468 8.12286 85.2018 10.1706 85.2018 13.9932V23.686H86.8741V13.959C86.8741 9.28327 83.7683 6.51877 79.2632 6.51877C76.9083 6.55289 74.5533 7.50853 73.2564 9.82934V6.82593H71.6182Z" fill="white"/>
<path d="M97.6999 6.75767V23.686H96.0275V6.75767H97.6999ZM95.5497 1.33106C95.5497 3.1058 98.246 3.1058 98.246 1.33106C98.246 -0.443686 95.5497 -0.443686 95.5497 1.33106Z" fill="white"/>
<path d="M109.49 1.91126V6.82593H105.906V8.22525H109.49V18.4983C109.49 21.8089 110.651 23.9249 114.234 23.9249C115.292 23.9249 116.35 23.5836 117.408 23.0717L116.828 21.7065C115.975 22.116 115.053 22.3891 114.234 22.3891C111.606 22.3891 111.128 20.785 111.128 18.4983V8.22525H116.862V6.82593H111.128V1.74061L109.49 1.91126Z" fill="white"/>
<path d="M127.154 6.75767V23.686H125.482V6.75767H127.154ZM125.004 1.33106C125.004 3.1058 127.7 3.1058 127.7 1.33106C127.7 -0.443686 125.004 -0.443686 125.004 1.33106Z" fill="white"/>
<path d="M142.187 23.686H144.03L151.094 6.82593H149.251L143.108 21.7406L136.965 6.82593H135.122L142.187 23.686Z" fill="white"/>
<path fill-rule="evenodd" clip-rule="evenodd" d="M158.242 14.087C158.242 13.5148 158.706 13.0509 159.278 13.0509L178.964 13.0509C179.536 13.0509 180 13.5148 180 14.087C180 14.6592 179.536 15.1231 178.964 15.1231L159.278 15.1231C158.706 15.1231 158.242 14.6592 158.242 14.087Z" fill="white"/>
<path fill-rule="evenodd" clip-rule="evenodd" d="M169.121 24.9659C168.549 24.9659 168.085 24.502 168.085 23.9298L168.085 4.2443C168.085 3.67209 168.549 3.20822 169.121 3.20822C169.693 3.20822 170.157 3.67209 170.157 4.2443L170.157 23.9298C170.157 24.502 169.693 24.9659 169.121 24.9659Z" fill="white"/>
</svg>
